<?xml version="1.0" encoding="utf-8"?>
<!-- Generator: Adobe Illustrator 19.2.1, SVG Export Plug-In . SVG Version: 6.00 Build 0)  -->
<svg version="1.1" id="Layer_1" xmlns="http://www.w3.org/2000/svg" xmlns:xlink="http://www.w3.org/1999/xlink" x="0px" y="0px"
	 viewBox="0 0 123.7 188.2" style="enable-background:new 0 0 123.7 188.2;" xml:space="preserve">
<style type="text/css">
	.st0{fill:#5E5F5F;}
</style>
<g>
	<g>
		<g>
			<path class="st0" d="M12.5,17.7h0.4L25,17.5l12.2-0.1c8.1,0,16.2-0.1,24.4,0L86,17.5l12.2,0.1l12.2,0.1h0.1c0.1,0,0.2,0,0.3,0
				c0.6-0.1,0.9-0.7,0.8-1.3c-0.7-2.6-1.2-5.1-1.8-7.7L109,4.8c-0.2-1.3-0.7-2.6-0.5-3.9c0-0.1,0-0.1,0-0.2
				c-0.1-0.4-0.5-0.8-0.9-0.7h-0.2c-1.9,0.2-3.8,0.4-5.7,0.5c-1.9,0.1-3.8,0.2-5.7,0.3C92.2,1,88.4,1,84.6,1C77,1,69.4,1,61.8,0.9
				c-7.6,0-15.2-0.2-22.8-0.3c-3.8,0-7.6-0.1-11.4-0.2C23.8,0.3,20,0.2,16.2,0.1h-0.1c-0.5,0-0.9,0.4-1,0.9c-0.1,1.3-0.2,2.6-0.4,4
				c-0.2,1.3-0.4,2.6-0.6,3.9c-0.2,1.3-0.5,2.6-0.7,3.9c-0.1,0.6-0.3,1.3-0.5,1.9c-0.2,0.6-0.5,1.2-0.9,1.8
				c-0.1,0.1-0.2,0.3-0.2,0.5C11.6,17.3,12,17.7,12.5,17.7z"/>
			<path class="st0" d="M122.9,20.9c-10.2-0.1-20.4-0.2-30.6-0.3L77,20.5c-5.1,0-10.2,0-15.3,0c-10.2,0-20.4,0.2-30.6,0.3l-15.3,0.3
				l-7.7,0.2l-7.7,0.2c-0.1,0-0.1,0.1-0.1,0.1c-0.1,3.1-0.2,6.2-0.3,9.3c0,0.2,0.1,0.4,0.3,0.4c5.1,0.2,10.2,0.2,15.3,0.3
				c5.1,0.1,10.2,0.1,15.3,0.2l7.7,0.1c2.6,0,5.1,0.1,7.7,0c2.6-0.1,5.1-0.4,7.7-0.5c2.6-0.1,5.1-0.1,7.7-0.1
				c5.1-0.1,10.2-0.1,15.3-0.1l15.3,0.1l15.3,0.1l15.3,0.2c0.4,0,0.6-0.3,0.7-0.6l0.1-9.3C123.7,21.3,123.4,20.9,122.9,20.9z"/>
			<path class="st0" d="M113.9,35.5c-0.2-0.1-0.3-0.1-0.4-0.1c0,0-0.2-0.2-0.4-0.2c-0.4-0.2-0.9-0.2-1.2-0.1s-0.5,0.1-0.8,0.1
				c-0.3,0-0.6-0.1-0.9-0.1s-0.7,0.1-1,0.2c-0.6,0.2-1,0.2-1.5,0c-0.5-0.1-1-0.3-1.5-0.3s-1,0-1.4,0c-0.9,0.1-1.6,0.3-2.1,0.5
				c-0.1,0-0.2,0.1-0.3,0.1c-0.6,0-1.3,0-1.9,0c-0.1,0-0.1,0-0.2,0c-9.4-0.1-18.8-0.2-28.2-0.4c-0.6,0-1.2,0-1.7,0
				c-4-0.1-8.1-0.2-12.1-0.3c-3.5-0.1-7,0.7-10.5,0.6c-0.8,0-1.6,0-2.5,0l-7.1-0.1c-1.3,0-2.7-0.1-4.1-0.1l-0.1,0l0,0
				c-5.2-0.1-10.9,0-16.5,0.4c-2.5,0.2-4.4,0.5-5.7,0.8c-0.9,0.2-1.5,0.4-1.9,0.7c-0.2,0.1-0.3,0.2-0.4,0.3c0,0,0-0.1,0-0.1H9.5H9.4
				c0,0,0,0.2-0.1,0.6c0-0.3-0.1-0.5-0.1-0.8c0,0.3,0,0.7,0.1,1c0,0.4-0.1,1-0.1,1.6c-0.1,1.6-0.1,3.8,0.1,6.5
				c0.1,1.3,0.3,2.8,0.5,4.3c0.2,1.1,0.4,2.2,0.6,3.4c0.4,5.3,0.8,10.4,1.1,15.5c0.1,1.4,0.2,2.8,0.3,4.2c0,0.8,0,1.6,0,2.4
				c0,1.6,0,3.2-0.1,4.7c-0.2,1.6,0.4,3.1,0.5,4.3c0.2,2.6,0.4,4.9,0.7,6.4c0,0.2,0.1,0.4,0.1,0.6c1.2,18.1,2.3,36.4,3.6,52.9h-0.1
				c0,0-0.1,0.9-0.1,2.5c0,1.6,0,3.9,0.1,6.6c0.1,1.4,0.1,2.8,0.2,4.4c0.1,1.6,0.3,3.2,0.5,4.9c0.4,3.4,0.5,7,0.6,10.7
				c0,1.8,0.1,3.6,0.1,5.4c0,0.9,0.1,1.8,0.1,2.7c0,0.8,0,1.7,0,2.6c0,0.4,0.1,0.9,0.1,1.3c0,0.2,0.1,0.5,0.2,0.7
				c0.1,0.1,0.1,0.2,0.2,0.4l0.1,0.1c0.1,0.1,0.1,0.1,0.2,0.1c0.1,0,0.2,0.1,0.3,0.1c0.3,0.1,0.5,0.1,0.6,0.1h0.1h0.1
				c0.1,0,0.1,0,0.2,0c0.2,0,0.3,0,0.4,0c0.2,0,0.4-0.1,0.5-0.1c0,0,0.3,0.1,0.5,0.1c0.4,0.1,0.9,0,1.3,0c0.4,0,0.7,0,1,0
				c0.7,0.1,1.5,0,2.2-0.1c0.8-0.1,1.6-0.3,2.3-0.4h1.1c4.7,0.1,9.3,0.1,13.9,0.2c7.8,0.1,15.6,0.2,23.5,0.4
				c4.2,0.1,8.5,0.1,12.8,0.2c2.6,0,5.1,0.1,7.7,0.1c0.1,0,0.1,0,0.2,0c5.8,0.1,11.7,0.1,17.6,0.2c0.7-9.9,1.3-20,2-30.2
				c0.7-7.4,1.1-15.3,1.5-23.2c0.4-11,2-22,2.4-33c0.4-10.6,0.9-21.3,1.5-32.1c0.3-5.4,0.6-10.8,0.9-16.3c0.2-3.8,0.5-7.7,0.7-11.5
				c0-0.1,0-0.2,0-0.3c0.1-0.9,0.1-1.9,0.1-2.8c0.2-0.5,0.4-1,0.3-1.7c0.2-0.3,0.2-0.5,0.2-0.5v-0.1c0-0.1,0-0.2-0.1-0.3
				C114.5,35.8,114.1,35.5,113.9,35.5z M17.8,162.9c0-0.3,0-0.5,0-0.8c0.1,1.8,0.2,3.6,0.3,5.4c0.1,1.9,0.2,3.9,0.3,5.8
				C18.1,169.8,17.8,166.3,17.8,162.9z"/>
		</g>
	</g>
</g>
</svg>
