<?xml version="1.0" encoding="utf-8"?>
<!-- Generator: Adobe Illustrator 19.2.1, SVG Export Plug-In . SVG Version: 6.00 Build 0)  -->
<svg version="1.1" id="Layer_1" xmlns="http://www.w3.org/2000/svg" xmlns:xlink="http://www.w3.org/1999/xlink" x="0px" y="0px"
	 viewBox="0 0 196 266.6" style="enable-background:new 0 0 196 266.6;" xml:space="preserve">
<style type="text/css">
	.st0{fill:#EE7B4C;}
	.st1{font-family:'Helvetica-Light';}
	.st2{font-size:30px;}
	.st3{fill:#32BAB3;}
</style>
<g>
	<text transform="matrix(1 0 0 1 22.5922 266.5893)" class="st1 st2">Cold Drink</text>
	<path class="st3" d="M144.6,30.6h-20.4l2.6-12.8l25.9-4.7L150.3,0l-30.4,5.6c-2.7,0.5-4.8,2.6-5.3,5.3l-4,19.8H41
		c-3.8,0-6.9,3.1-6.9,6.9l19.1,180.1c0,3.8,3.1,6.9,6.9,6.9h65.4c3.8,0,6.9-3.1,6.9-6.9l19.1-180.1
		C151.5,33.7,148.4,30.6,144.6,30.6z M119.7,211.1H66L48.3,44h59.7l-3.7,18.7H77.9v88l-6.6-88H57.1l13.6,142.6h44.2l13.6-142.6
		h-10.7l3.7-18.7h15.8L119.7,211.1z"/>
</g>
</svg>
