<?xml version="1.0" encoding="utf-8"?>
<!-- Generator: Adobe Illustrator 19.2.1, SVG Export Plug-In . SVG Version: 6.00 Build 0)  -->
<svg version="1.1" id="Layer_1" xmlns="http://www.w3.org/2000/svg" xmlns:xlink="http://www.w3.org/1999/xlink" x="0px" y="0px"
	 viewBox="0 0 196 266.6" style="enable-background:new 0 0 196 266.6;" xml:space="preserve">
<style type="text/css">
	.st0{font-family:'Helvetica-Light';}
	.st1{font-size:30px;}
	.st2{fill:#EE7B4C;}
</style>
<g>
	<text transform="matrix(1 0 0 1 46.5125 266.5892)" class="st0 st1">Tea</text>
	<g>
		<circle class="st2" cx="56.1" cy="139.1" r="4.3"/>
		<path class="st2" d="M148.9,103.3c-5.4,0-10.5,1.1-15.2,3V102H58v29.4h9.8l9.5,16.3V183h-41v-35.3l9.5-16.3h8.3V102H15v62.9
			c0,32.8,26.6,59.4,59.4,59.4c27.6,0,50.9-18.9,57.5-44.5c5.2,2.4,11,3.8,17.1,3.8c22.1,0,40.2-18,40.2-40.2
			C189.1,121.3,171,103.3,148.9,103.3z M148.9,166.6c-5.8,0-11.1-2.1-15.2-5.7V126c4.1-3.5,9.4-5.7,15.2-5.7
			c12.8,0,23.1,10.4,23.1,23.1C172,156.2,161.7,166.6,148.9,166.6z"/>
	</g>
</g>
</svg>
