<?xml version="1.0" encoding="utf-8"?>
<!-- Generator: Adobe Illustrator 19.2.1, SVG Export Plug-In . SVG Version: 6.00 Build 0)  -->
<svg version="1.1" id="Layer_1" xmlns="http://www.w3.org/2000/svg" xmlns:xlink="http://www.w3.org/1999/xlink" x="0px" y="0px"
	 viewBox="0 0 196 266.6" style="enable-background:new 0 0 196 266.6;" xml:space="preserve">
<style type="text/css">
	.st0{font-family:'Helvetica-Light';}
	.st1{font-size:30px;}
	.st2{fill:#32BAB3;}
	.st3{fill:#EE7B4C;}
</style>
<g>
	<text transform="matrix(1 0 0 1 -1.9673 266.5891)" class="st0 st1">Hot Chocolate</text>
	<g>
		<polygon class="st2" points="77,111.7 77,161.6 70.4,111.7 56.2,111.7 69.8,204.8 114,204.8 127.6,111.7 		"/>
		<path class="st2" d="M163.3,102.4c-5.6,0-10.9,1.4-15.6,4l2.9-19.8c0-3.7-2.9-6.7-6.6-6.9c-3.4-5.9-9.3-10.1-16-11.3
			c-3.7-17.1-19-29.7-36.7-29.7c-14.8,0-28.3,8.9-34.3,22.3c-9.6,1.6-17.2,9.3-18.8,18.9c-2.8,0.9-4.8,3.5-4.8,6.6L52.3,217
			c0,3.8,3.1,6.9,6.9,6.9h65.4c3.8,0,6.9-3.1,6.9-6.9l8.6-58.7c5.9,5.9,14.1,9.6,23.2,9.6c18.1,0,32.7-14.7,32.7-32.7
			C196,117,181.3,102.4,163.3,102.4z M59.8,68.4l2.5-0.2l0.9-2.3c4.3-11.7,15.6-19.6,28.1-19.6c15,0,27.7,11.2,29.7,26l0.4,3.2
			l3.2,0.1c3.7,0.1,7.1,1.6,9.8,4H45.9C47.6,73.4,53.1,68.8,59.8,68.4z M119,210.5H64.9L47.7,93h88.4L119,210.5z M163.3,150.8
			c-8.7,0-15.7-7.1-15.7-15.7s7.1-15.7,15.7-15.7s15.7,7.1,15.7,15.7S171.9,150.8,163.3,150.8z"/>
	</g>
</g>
</svg>
