<?xml version="1.0" encoding="utf-8"?>
<!-- Generator: Adobe Illustrator 19.2.1, SVG Export Plug-In . SVG Version: 6.00 Build 0)  -->
<svg version="1.1" id="Layer_1" xmlns="http://www.w3.org/2000/svg" xmlns:xlink="http://www.w3.org/1999/xlink" x="0px" y="0px"
	 viewBox="0 0 196 266.6" style="enable-background:new 0 0 196 266.6;" xml:space="preserve">
<style type="text/css">
	.st0{font-family:'Helvetica-Light';}
	.st1{font-size:30px;}
	.st2{fill:#EE7B4C;}
</style>
<g>
	<text transform="matrix(1 0 0 1 27.5555 266.5636)" class="st0 st1">Coffee</text>
	<path class="st2" d="M133,99.6c-0.4,0-0.8,0-1.2,0V86.9c0-3.8-3.1-6.9-6.9-6.9H21.3c-3.8,0-6.9,3.1-6.9,6.9v130.5
		c0,3.8,3.1,6.9,6.9,6.9h103.6c3.8,0,6.9-3.1,6.9-6.9v-13.8c0.4,0,0.8,0,1.2,0c24.6,0,44.6-23.3,44.6-52
		C177.6,122.9,157.6,99.6,133,99.6z M133,186.5c-0.4,0-0.8,0-1.2,0v-69.9c0.4,0,0.8,0,1.2,0c15.2,0,27.6,15.7,27.6,35
		S148.2,186.5,133,186.5z"/>
</g>
</svg>
