<?xml version="1.0" encoding="utf-8"?>
<!-- Generator: Adobe Illustrator 19.2.1, SVG Export Plug-In . SVG Version: 6.00 Build 0)  -->
<svg version="1.1" id="Layer_1" xmlns="http://www.w3.org/2000/svg" xmlns:xlink="http://www.w3.org/1999/xlink" x="0px" y="0px"
	 viewBox="0 0 400 400" style="enable-background:new 0 0 400 400;" xml:space="preserve">
<style type="text/css">
	.st0{display:none;}
	.st1{display:inline;}
	.st2{fill:#5E5E5E;}
	.st3{font-family:'HelveticaNeue-Bold';}
	.st4{font-size:46.0055px;}
	.st5{font-size:51.3293px;}
	.st6{font-family:'HelveticaNeue-Light';}
	.st7{font-size:32.59px;}
	.st8{display:inline;fill:#A89F76;}
	.st9{font-family:'HelveticaNeue-LightItalic';}
	.st10{font-size:20px;}
	.st11{display:inline;fill:#5E5E5E;}
	.st12{font-family:'HelveticaNeue-UltraLight';}
	.st13{font-size:30px;}
	.st14{font-size:72.4587px;}
	.st15{fill:#EE7B4C;}
	.st16{fill:#FFE06F;}
	.st17{fill:#32BAB3;}
	.st18{fill:#A89F76;}
	.st19{font-size:40px;}
	.st20{font-size:38.2188px;}
	.st21{font-size:78.8759px;}
</style>
<g class="st0">
	<text transform="matrix(1 0 0 1 19.0005 268.8271)" class="st1"><tspan x="0" y="0" class="st2 st3 st4">please bring me</tspan><tspan x="0" y="50.5" class="st2 st3 st5">some COFFEE</tspan><tspan x="354.5" y="50.5" class="st2 st6 st7">. </tspan></text>
	<text transform="matrix(1 0 0 1 261.5613 379.9997)" class="st8 st9 st10">~ Lewis Black</text>
	<text transform="matrix(1 0 0 1 48.3018 66.4329)" class="st11 st12 st13">If this is coffee,</text>
	<text transform="matrix(1 0 0 1 18.9985 114.7241)" class="st1"><tspan x="0" y="0" class="st2 st3 st4">please bring me</tspan><tspan x="0" y="64.4" class="st2 st3 st14">some TEA</tspan><tspan x="351.4" y="64.4" class="st2 st6 st4">;</tspan></text>
	<text transform="matrix(1 0 0 1 40.3019 220.262)" class="st1"><tspan x="0" y="0" class="st2 st6 st13"> </tspan><tspan x="8.3" y="0" class="st2 st12 st13">but if this is tea,</tspan></text>
</g>
<g>
	<text transform="matrix(1 0 0 1 261.5613 379.9997)" class="st18 st9 st10">~ Lewis Black</text>
</g>
<text transform="matrix(1 0 0 1 45.3452 116.7307)" class="st2 st3 st19">I like coffee</text>
<text transform="matrix(1 0 0 1 18.9995 158.1987)" class="st2 st12 st20">because it gives me the</text>
<text transform="matrix(1 0 0 1 15 236.001)" class="st2 st3 st21">ILLUSION</text>
<g>
	<text transform="matrix(1 0 0 1 48.3452 278.5483)" class="st2 st12 st20">that I might be awake.</text>
</g>
</svg>
