<?xml version="1.0" encoding="utf-8"?>
<!-- Generator: Adobe Illustrator 19.2.1, SVG Export Plug-In . SVG Version: 6.00 Build 0)  -->
<svg version="1.1" id="Layer_1" xmlns="http://www.w3.org/2000/svg" xmlns:xlink="http://www.w3.org/1999/xlink" x="0px" y="0px"
	 viewBox="0 0 400 400" style="enable-background:new 0 0 400 400;" xml:space="preserve">
<style type="text/css">
	.st0{fill:#FFFFFF;}
	.st1{fill:#EE7B4C;}
	.st2{fill:#FFE06F;}
	.st3{fill:#5E5E5E;}
	.st4{fill:#32BAB3;}
	.st5{font-family:'Helvetica-Light';}
	.st6{font-size:31.3081px;}
</style>
<g>
	<g>
		<g>
			<path class="st0" d="M199.9,384.9C98,384.9,15,302,15,200S98,15.1,199.9,15.1S384.8,98,384.8,200S301.9,384.9,199.9,384.9z"/>
			<path class="st1" d="M199.9,22.1c47.5,0,92.2,18.5,125.8,52.1s52.1,78.3,52.1,125.8s-18.5,92.2-52.1,125.8s-78.3,52.1-125.8,52.1
				s-92.2-18.5-125.8-52.1c-33.5-33.6-52-78.3-52-125.8s18.5-92.2,52.1-125.8S152.4,22.1,199.9,22.1 M199.9,8.1
				C94,8.1,8.1,94,8.1,200S94,391.9,200,391.9S391.9,306,391.9,200S305.9,8.1,199.9,8.1L199.9,8.1z"/>
		</g>
		<g>
			<path class="st2" d="M147.9,145.3c0,0.4,0,1,0.1,1.8c0,0.1,0,0.2,0,0.2l0.2,2.8c0.1,1,0.2,2.1,0.3,3.3c0.1,1.3,0.3,2.7,0.5,4.2
				c0.1,1.5,0.3,3.1,0.4,4.8c0.2,1.7,0.4,3.4,0.6,5.1c0.1,0.6,0.2,1.1,0.2,1.7c0.9,0,6.8,0.1,15.3,0.3c9.3,0.1,21.6,0.3,33.9,0.5
				c12.3,0.2,24.7,0.4,33.9,0.6c4.6,0.1,8.5,0.2,11.2,0.3c1.3,0,2.4,0.1,3.1,0.1c0.2,0,0.3,0,0.4,0c0-0.1,0-0.1,0-0.2
				c0-0.9,0.1-1.7,0.1-2.6c0.2-3.3,0.4-6.6,0.6-9.9c0.2-2.4,0.3-4.7,0.5-7.1l0.2-3.6l0.1-1.2V146h-0.4c-11.3-0.1-22.7-0.2-34.1-0.3
				c-11.6-0.1-23.1-0.2-34.5-0.1c-0.1,0-0.1,0-0.2,0c2.5,0.1,10.8,0.5,10.8,0.5c-2,0-12.2-0.3-17.1-0.3c-6.9,0.3-14.6,0.1-19.4-0.1
				c-2,0-3.3,0.7-4.4,0.4c-1.3-0.1-2.1-0.4-2.4-0.7c-0.2-0.3,0-0.6,0.5-0.9h-0.9h0.1C147.9,144.7,147.9,144.9,147.9,145.3z"/>
			<path class="st2" d="M241.3,282.2c1.1-14.7,1.8-27.1,2.6-40.7c-0.6,0-1.7-0.1-3.2-0.2c-2.4-0.1-5.9-0.2-10.1-0.3
				c-8.4-0.1-19.6-0.1-30.8-0.2c-5.6,0-11.2-0.1-16.4-0.1c-5.2-0.1-10.1-0.1-14.3-0.2c-6.4-0.1-11.2-0.2-13.1-0.2
				c0.1,2.2,0.2,4.4,0.3,6.5c0.8,8.4,1.3,16.4,1.6,26.3c0.1,4,0.7,10,1.2,15c0.1,0.7,0.2,1.4,0.3,2.2c0,0.6,0.1,1.2,0.1,1.7
				c0,0.1,0,0.2,0,0.3c3.5,0.1,6.7,0.1,9.9,0.2c3.8,0.1,7.4,0.2,11.2,0.3c1.6,0,3.1,0.1,4.8,0.1l0,0l0,0l0,0c1.1,0,2.1,0.1,3.2,0.1
				c1.6,0,3.7-0.2,5.8-0.4c0.7-0.1,1.5-0.2,2.2-0.2c0.4,0,0.8-0.1,1.1-0.1s0.6,0,1,0c0,0,0,0,0.1,0c1.3,0,2.5,0.1,3.7,0.1h-0.1
				c1.4,0.1,2.8,0.1,4.2,0.2c0.4,0,0.7,0,1.1,0l0,0c1.1,0,2.1,0.1,3.1,0.1l0,0c2.4,0.1,4.6,0.1,6.6,0.1c0.4,0,0.8,0,1.3-0.1
				c1.7-0.1,3.5-0.2,5.3-0.2c3-0.1,6.1-0.2,9.3-0.2c2.5,0,5,0,7.4-0.1C240.9,288.7,241.1,285.2,241.3,282.2z"/>
			<path class="st2" d="M166,171.5c-0.1,0-0.2,0-0.3,0c-7.9,0-13.5,0-15,0l0,0H166z"/>
			<path class="st3" d="M151,125.4h0.4l12.1-0.2l12.2-0.1c8.1,0,16.2-0.1,24.4,0l24.4,0.1l12.2,0.1l12.2,0.1h0.1c0.1,0,0.2,0,0.3,0
				c0.6-0.1,0.9-0.7,0.8-1.3c-0.7-2.6-1.2-5.1-1.8-7.7l-0.8-3.9c-0.2-1.3-0.7-2.6-0.5-3.9c0-0.1,0-0.1,0-0.2
				c-0.1-0.4-0.5-0.8-0.9-0.7h-0.2c-1.9,0.2-3.8,0.4-5.7,0.5s-3.8,0.2-5.7,0.3c-3.8,0.2-7.6,0.2-11.4,0.2c-7.6,0-15.2,0-22.8-0.1
				c-7.6,0-15.2-0.2-22.8-0.3c-3.8,0-7.6-0.1-11.4-0.2c-3.8-0.1-7.6-0.2-11.4-0.3h-0.1c-0.5,0-0.9,0.4-1,0.9c-0.1,1.3-0.2,2.6-0.4,4
				c-0.2,1.3-0.4,2.6-0.6,3.9c-0.2,1.3-0.5,2.6-0.7,3.9c-0.1,0.6-0.3,1.3-0.5,1.9s-0.5,1.2-0.9,1.8c-0.1,0.1-0.2,0.3-0.2,0.5
				C150.1,125,150.5,125.4,151,125.4z"/>
			<path class="st3" d="M138.8,139L138.8,139c5.1,0.2,10.2,0.2,15.3,0.3s10.2,0.1,15.3,0.2l7.7,0.1c2.6,0,5.1,0.1,7.7,0
				c2.6-0.1,5.1-0.4,7.7-0.5c2.6-0.1,5.1-0.1,7.7-0.1c5.1-0.1,10.2-0.1,15.3-0.1l15.3,0.1l15.3,0.1l15.3,0.2c0.4,0,0.6-0.3,0.7-0.6
				l0,0l0.1-9.3l0,0c0-0.4-0.3-0.8-0.8-0.8l0,0c-10.2-0.1-20.4-0.2-30.6-0.3l-15.3-0.1c-5.1,0-10.2,0-15.3,0
				c-10.2,0-20.4,0.2-30.6,0.3l-15.3,0.3l-7.7,0.2l-7.7,0.2c-0.1,0-0.1,0.1-0.1,0.1c-0.1,3.1-0.2,6.2-0.3,9.3
				C138.5,138.8,138.6,139,138.8,139z"/>
			<path class="st4" d="M150.3,171.5c1.4,16.4,2.8,34.5,4,49.8c0.7,5.7,1.2,11.8,1.6,18.1c1.9,0,6.7-0.1,13.1,0c4.2,0,9.1,0,14.3,0
				s10.8,0.1,16.4,0.1c11.2,0.1,22.4,0.1,30.8,0.2c4.2,0,7.7-0.1,10.1-0.1c1.5-0.1,2.7-0.1,3.3-0.1c0.3-4.5,0.5-9.2,0.8-14.1
				c0.7-9.1,1.3-17.8,1.8-26.3c0.1-1.4,0.2-2.7,0.3-4.1c0.4-6.8,0.8-13.5,1.2-20.2c0.1-1,0.1-1.9,0.2-2.9c-0.1,0-0.2,0-0.4,0
				c-0.7,0-1.8,0-3.1,0c-2.7,0-6.6,0-11.2,0.1c-9.3-0.1-21.6-0.1-33.9-0.2c-12.2-0.1-24.4-0.2-33.7-0.3h-15.3H150.3z M200.1,182.4
				c12.8,0,23.1,10.3,23.1,23.1s-10.3,23.1-23.1,23.1S177,218.3,177,205.5S187.3,182.4,200.1,182.4z"/>
			<circle class="st0" cx="200.1" cy="205.5" r="23.1"/>
			<path class="st3" d="M253.2,144.3v-0.1c0-0.1,0-0.2-0.1-0.3c-0.1-0.4-0.5-0.7-0.7-0.7c-0.2-0.1-0.3-0.1-0.4-0.1
				c0,0-0.2-0.2-0.4-0.2c-0.4-0.2-0.9-0.2-1.2-0.1c-0.3,0.1-0.5,0.1-0.8,0.1s-0.6-0.1-0.9-0.1c-0.3,0-0.7,0.1-1,0.2
				c-0.6,0.2-1,0.2-1.5,0c-0.5-0.1-1-0.3-1.5-0.3s-1,0-1.4,0c-0.9,0.1-1.6,0.3-2.1,0.5c-0.1,0-0.2,0.1-0.3,0.1c-0.6,0-1.3,0-1.9,0
				c-0.1,0-0.1,0-0.2,0c-9.4-0.1-18.8-0.2-28.2-0.4c-0.6,0-1.2,0-1.7,0c-4-0.1-8.1-0.2-12.1-0.3c-3.5-0.1-7,0.7-10.5,0.6
				c-1.5,0-2.9,0-4.4,0c-7.4-0.2-16.7-0.5-25.8,0.2c-2.5,0.2-4.4,0.5-5.7,0.8c-0.9,0.2-1.5,0.4-1.9,0.7c-0.6,0.3-0.7,0.6-0.5,0.9
				c0.3,0.3,1.1,0.6,2.4,0.7c1.2,0.3,2.4-0.4,4.4-0.4c4.9,0.2,12.6,0.5,19.4,0.1c4.9,0,15.1,0.3,17.1,0.3c0,0-8.3-0.3-10.8-0.5
				c0.1,0,0.1,0,0.2,0c11.4,0,22.9,0,34.5,0.1c11.3,0.1,22.7,0.2,34.1,0.3h0.4v0.4l-0.1,1.2l-0.2,3.6c-0.2,2.4-0.3,4.7-0.5,7.1
				c-0.2,3.3-0.4,6.6-0.6,9.9c0,0.8-0.1,1.7-0.1,2.6c0,0.1,0,0.1,0,0.2c-0.1,0-0.3,0-0.4,0c-0.7,0-1.8-0.1-3.1-0.1
				c-2.7-0.1-6.6-0.2-11.2-0.3c-9.3-0.2-21.6-0.4-33.9-0.6c-12.3-0.2-24.7-0.4-33.9-0.5c-8.5-0.2-14.4-0.3-15.3-0.3
				c-0.1-0.6-0.1-1.2-0.2-1.7c-0.2-1.7-0.5-3.4-0.6-5.1c-0.2-1.7-0.3-3.3-0.4-4.8c-0.1-1.5-0.3-2.9-0.5-4.2
				c-0.1-1.2-0.3-2.3-0.3-3.3c-0.1-1.1-0.2-2-0.2-2.8c0-0.1,0-0.2,0-0.2c-0.1-0.8-0.1-1.4-0.1-1.8c0-0.4,0-0.6,0-0.6H148h-0.1
				c0,0,0,0.2-0.1,0.6c0-0.3-0.1-0.5-0.1-0.8c0,0.3,0,0.7,0.1,1c0,0.4-0.1,1-0.1,1.6c-0.1,1.6-0.1,3.8,0.1,6.5
				c0.1,1.3,0.3,2.8,0.5,4.3c0.2,1.1,0.4,2.2,0.6,3.4c0.4,5.3,0.8,10.4,1.1,15.5c0.1,1.4,0.2,2.8,0.3,4.2c0,0.8,0,1.6,0,2.4
				c0,1.6,0,3.2-0.1,4.7c-0.2,1.6,0.4,3.1,0.5,4.3c0.2,2.6,0.4,4.9,0.7,6.4c0,0.2,0.1,0.4,0.1,0.6c1.2,18.1,2.3,36.4,3.6,52.9H155
				c0,0-0.1,0.9-0.1,2.5c0,1.6,0,3.9,0.1,6.6c0.1,1.4,0.1,2.8,0.2,4.4c0.1,1.6,0.3,3.2,0.5,4.9c0.4,3.4,0.5,7,0.6,10.7
				c0,1.8,0.1,3.6,0.1,5.4c0,0.9,0.1,1.8,0.1,2.7c0,0.8,0,1.7,0,2.6c0,0.4,0.1,0.9,0.1,1.3c0,0.2,0.1,0.5,0.2,0.7
				c0.1,0.1,0.1,0.2,0.2,0.4l0,0l0.1,0.1c0.1,0.1,0.1,0.1,0.2,0.1c0.1,0,0.2,0.1,0.3,0.1c0.3,0.1,0.5,0.1,0.6,0.1l0,0l0,0l0,0h0.1
				l0,0h0.1c0.1,0,0.1,0,0.2,0c0.2,0,0.3,0,0.4,0c0.2,0,0.4-0.1,0.5-0.1c0,0,0.3,0.1,0.5,0.1c0.4,0.1,0.9,0,1.3,0c0.4,0,0.7,0,1,0
				c0.7,0.1,1.5,0,2.2-0.1c0.8-0.1,1.6-0.3,2.3-0.4h1.1c4.7,0.1,9.3,0.1,13.9,0.2c7.8,0.1,15.6,0.2,23.5,0.4
				c4.2,0.1,8.5,0.1,12.8,0.2c2.6,0,5.1,0.1,7.7,0.1c0.1,0,0.1,0,0.2,0c5.8,0.1,11.7,0.1,17.6,0.2c0.7-9.9,1.3-20,2-30.2
				c0.7-7.4,1.1-15.3,1.5-23.2c0.4-11,2-22,2.4-33c0.4-10.6,0.9-21.3,1.5-32.1c0.3-5.4,0.6-10.8,0.9-16.3c0.2-3.8,0.5-7.7,0.7-11.5
				c0-0.1,0-0.2,0-0.3c0.1-0.9,0.1-1.9,0.1-2.8c0.2-0.5,0.4-1,0.3-1.7C253.2,144.5,253.2,144.3,253.2,144.3z M224,292.7
				c-1.8,0.1-3.6,0.1-5.3,0.2c-0.4,0-0.9,0-1.3,0.1c-2,0.1-4.3,0-6.6-0.1l0,0c-1,0-2.1-0.1-3.1-0.1l0,0c-0.4,0-0.7,0-1.1,0
				c-1.4-0.1-2.8-0.1-4.2-0.2h0.1c-1.2,0-2.4-0.1-3.7-0.1c0,0,0,0-0.1,0c-0.3,0-0.6,0-1,0s-0.7,0.1-1.1,0.1
				c-0.7,0.1-1.5,0.1-2.2,0.2c-2.1,0.2-4.2,0.4-5.8,0.4c-1.1,0-2.2-0.1-3.2-0.1l0,0l0,0l0,0c-1.6,0-3.2-0.1-4.8-0.1
				c-3.8-0.1-7.5-0.2-11.2-0.3c-3.1-0.1-6.4-0.1-9.9-0.2c0-0.1,0-0.2,0-0.3c0-0.6-0.1-1.1-0.1-1.7c-0.1-0.8-0.2-1.5-0.3-2.2
				c-0.5-5-1.1-11-1.2-15c-0.3-9.9-0.8-17.9-1.6-26.3c-0.1-2.2-0.2-4.4-0.3-6.5c1.9,0,6.7,0.1,13.1,0.2c4.2,0.1,9.1,0.1,14.3,0.2
				c5.2,0,10.8,0.1,16.4,0.1c11.2,0.1,22.4,0.2,30.8,0.2c4.2,0.1,7.7,0.2,10.1,0.3c1.5,0.1,2.5,0.1,3.2,0.2
				c-0.8,13.7-1.5,26.1-2.6,40.7c-0.2,3-0.4,6.5-0.6,10.3c-2.4,0-4.9,0-7.4,0.1C230.1,292.5,227,292.6,224,292.7z M165.7,171.5
				c0.1,0,0.2,0,0.3,0c9.2,0.1,21.4,0.2,33.7,0.3s24.7,0.1,33.9,0.2c4.6,0,8.5-0.1,11.2-0.1c1.4,0,2.4,0,3.1,0c0.1,0,0.3,0,0.4,0
				c-0.1,1-0.1,1.9-0.2,2.9c-0.4,6.7-0.8,13.4-1.2,20.2c-0.1,1.4-0.2,2.7-0.3,4.1c-0.5,8.5-1.1,17.2-1.8,26.3
				c-0.3,4.9-0.6,9.6-0.8,14.1c-0.6,0-1.7,0.1-3.3,0.1c-2.4,0.1-5.9,0.1-10.1,0.1c-8.4,0-19.6-0.1-30.8-0.2
				c-5.6,0-11.2-0.1-16.4-0.1s-10.1,0-14.3,0c-6.5,0-11.3,0-13.1,0c-0.4-6.3-0.9-12.4-1.6-18.1c-1.2-15.3-2.6-33.4-4-49.8h0.4l0,0
				C152.2,171.5,157.8,171.5,165.7,171.5z M156.3,270.6c0-0.3,0-0.5,0-0.8c0.1,1.8,0.2,3.6,0.3,5.4c0.1,1.9,0.2,3.9,0.3,5.8
				C156.6,277.5,156.3,274,156.3,270.6z"/>
			<path class="st1" d="M175.9,68.2c0.9,1.9,2.1,3.7,3.4,5.3c1.3,1.6,2.7,3.1,4.2,4.5c-2.7-3.1-5.1-6.5-6.4-10.3
				c-0.6-1.9-1-3.9-0.9-5.8c0.1-1.9,0.6-3.7,1.5-5.3c0.5-0.8,1.1-1.5,1.8-2s1.5-0.9,2.2-1.3c0.7-0.4,1.5-0.5,2.2-1s1.5-0.5,2.3-0.5
				c1.6,0,3.1,0.7,4.2,1.8c1.2,1.1,1.9,2.7,2.4,4.3l1.5,5.5l3-5.2c0.9-1.6,2.1-3.1,3.4-4.3c1.3-1.2,2.8-2.1,4.3-2.7
				c1.5-0.6,3-0.8,4.3-0.7c0.3,0,0.7,0.1,1,0c0.4-0.1,0.7-0.2,1.1-0.2c0.8-0.2,1.5,0.2,2.2,0.6c1.3,0.9,2.4,2.2,3.2,3.7
				s1.4,3.2,2,4.8c0.1,0.4,0.3,0.8,0.4,1.2c0.1,0.5,0.3,1,0.5,1.5c0.2,0.6,0.4,1.4,0.5,2.1c0.2,1.4,0,2.7-0.6,4.2
				c-1.2,2.8-3.9,5.7-6.9,8.3c-3,2.6-6.4,5.1-9.7,7.6c-1.7,1.3-3.3,2.7-4.9,4.1c-1.6,1.4-3.1,3-4.5,4.7s-2.6,3.5-3.4,5.6
				c-0.8,2-1.1,4.2-0.9,6.3c0.2-2.1,1-4,2.1-5.7s2.5-3.1,4-4.4s3.2-2.5,4.9-3.6s3.5-2.1,5.3-3.2c3.6-2.1,7.3-4,10.9-6.5
				c1.8-1.2,3.6-2.5,5.3-4.1s3.3-3.4,4.6-5.7c1.3-2.3,2-5.1,1.9-7.9c0-1.4-0.2-2.7-0.6-4.1c-0.1-0.5-0.3-1-0.4-1.5
				c-0.2-0.6-0.4-1.2-0.7-1.7c-0.9-2.2-2.3-4.3-3.9-6.1c-1.7-1.9-3.7-3.5-5.9-4.7c-0.6-0.3-1.2-0.6-1.8-0.8
				c-0.6-0.3-1.2-0.6-1.8-0.9c-0.6-0.4-1.2-0.7-1.9-0.9s-1.4-0.2-2.1-0.2c-1.4,0-2.8,0.2-4,0.7c-0.7,0.2-1.3,0.5-1.9,0.7
				c-0.6,0.3-1.2,0.6-1.7,0.9c-2.2,1.4-4,3.2-5.4,5.1c-0.5,0.7-0.9,1.4-1.4,2.1c-0.5-0.6-1-1.2-1.6-1.7c-1-0.8-2.1-1.5-3.2-2
				c-1.2-0.5-2.5-0.8-3.7-0.8c-1.3-0.1-2.5,0.2-3.8,0.2s-2.4,0.8-3.4,1.5c-1,0.8-1.8,1.7-2.5,2.7s-1.2,2.1-1.7,3.1
				c-0.9,2.2-1.2,4.5-1,6.7C174.3,64.2,175,66.3,175.9,68.2z"/>
		</g>
	</g>
</g>
<g>
	<text transform="matrix(1 0 0 1 102.5859 327.3262)" class="st3 st5 st6">COFFEE RUN</text>
</g>
</svg>
